<?xml version="1.0" standalone="no"?>
<!DOCTYPE svg PUBLIC "-//W3C//DTD SVG 20010904//EN"
 "http://www.w3.org/TR/2001/REC-SVG-20010904/DTD/svg10.dtd">
<svg version="1.0" xmlns="http://www.w3.org/2000/svg"
 width="436.000000pt" height="106.000000pt" viewBox="0 0 436.000000 106.000000"
 preserveAspectRatio="xMidYMid meet">

<g transform="translate(0.000000,106.000000) scale(0.100000,-0.100000)"
fill="#000000" stroke="none">
<path d="M353 789 c-10 -27 -15 -30 -27 -20 -21 18 -36 5 -33 -28 l2 -29 70 1
c69 1 71 2 70 27 0 18 -5 24 -17 22 -11 -2 -23 9 -33 28 -8 16 -17 30 -18 30
-1 0 -8 -14 -14 -31z"/>
<path d="M386 682 c-3 -3 -6 -18 -6 -34 0 -23 4 -28 24 -28 32 0 53 25 37 44
-13 16 -47 27 -55 18z m34 -32 c0 -11 -4 -20 -9 -20 -14 0 -23 18 -16 30 10
17 25 11 25 -10z"/>
<path d="M134 668 c-4 -6 1 -17 10 -24 13 -9 14 -13 4 -17 -9 -4 -7 -6 4 -6
24 -1 34 20 15 34 -9 7 -14 15 -10 18 3 4 1 7 -5 7 -6 0 -14 -5 -18 -12z"/>
<path d="M270 676 c0 -18 22 -56 31 -56 7 0 10 3 6 6 -6 6 16 34 27 34 3 0 6
-9 6 -20 0 -32 16 -23 18 10 2 26 -1 30 -23 30 -17 0 -25 -6 -25 -17 -1 -17
-1 -17 -14 0 -12 16 -26 23 -26 13z"/>
<path d="M201 648 c-1 -23 3 -28 24 -28 14 0 25 4 25 9 0 5 3 16 6 25 3 9 1
16 -5 16 -6 0 -11 -9 -11 -20 0 -27 -18 -25 -30 3 -8 21 -9 21 -9 -5z"/>
<path d="M505 660 c-3 -5 -1 -18 4 -27 9 -16 10 -14 11 10 0 28 -5 34 -15 17z"/>
<path d="M546 645 c-3 -8 -1 -15 4 -15 6 0 10 7 10 15 0 8 -2 15 -4 15 -2 0
-6 -7 -10 -15z"/>
<path d="M570 645 c0 -8 4 -15 10 -15 5 0 7 7 4 15 -4 8 -8 15 -10 15 -2 0 -4
-7 -4 -15z"/>
<path d="M343 573 c-16 -6 -17 -49 -2 -58 5 -4 21 -4 35 -1 19 5 24 12 22 28
-3 21 -34 38 -55 31z m37 -28 c0 -8 -7 -15 -15 -15 -8 0 -15 7 -15 15 0 8 7
15 15 15 8 0 15 -7 15 -15z"/>
<path d="M37 563 c-11 -10 -8 -43 3 -43 6 0 10 11 10 25 0 26 -2 29 -13 18z"/>
<path d="M100 546 c0 -14 4 -26 9 -26 5 0 7 9 4 20 -7 26 21 27 37 3 10 -16
10 -16 8 2 -2 13 -12 21 -31 23 -23 3 -27 0 -27 -22z"/>
<path d="M177 564 c-13 -13 -7 -33 14 -44 18 -10 19 -9 11 7 -5 10 -11 24 -13
31 -3 7 -8 10 -12 6z"/>
<path d="M220 545 c0 -15 4 -24 10 -20 6 3 10 12 10 20 0 8 -4 17 -10 20 -6 4
-10 -5 -10 -20z"/>
<path d="M310 559 c0 -5 -10 -9 -22 -7 -16 2 -23 -3 -26 -17 -2 -15 -1 -17 6
-6 7 10 14 11 31 2 19 -11 21 -9 21 14 0 14 -2 25 -5 25 -3 0 -5 -5 -5 -11z"/>
<path d="M420 551 c-14 -26 -14 -26 19 -27 27 -1 28 1 19 22 -14 29 -24 30
-38 5z"/>
<path d="M490 555 c6 -8 9 -19 5 -25 -3 -5 -2 -10 3 -10 5 0 12 10 14 23 3 17
0 23 -15 24 -15 2 -16 -1 -7 -12z"/>
<path d="M552 545 c0 -16 2 -22 5 -12 2 9 2 23 0 30 -3 6 -5 -1 -5 -18z"/>
<path d="M574 555 c-6 -16 2 -35 16 -35 4 0 6 9 3 20 -4 14 0 20 10 20 9 0 18
-10 20 -22 4 -20 4 -19 6 5 1 23 -3 27 -24 27 -14 0 -28 -7 -31 -15z"/>
<path d="M697 556 c-15 -12 -16 -15 -2 -26 19 -16 28 -9 23 18 -3 18 -5 19
-21 8z"/>
<path d="M661 534 c0 -11 3 -14 6 -6 3 7 2 16 -1 19 -3 4 -6 -2 -5 -13z"/>
<path d="M283 473 c-12 -2 -27 -10 -33 -18 -9 -11 -6 -14 17 -12 24 2 28 -2
27 -23 0 -14 -4 -38 -9 -55 -8 -30 -8 -30 13 -12 15 13 21 33 24 73 2 32 -1
53 -7 53 -5 -1 -20 -4 -32 -6z"/>
<path d="M369 465 c-1 -5 -3 -23 -5 -39 -2 -16 -5 -35 -8 -42 -4 -10 13 -24
30 -24 8 0 3 86 -6 100 -5 8 -10 11 -11 5z"/>
<path d="M868 373 c56 -2 148 -2 205 0 56 1 10 3 -103 3 -113 0 -159 -2 -102
-3z"/>
<path d="M2678 373 c17 -2 47 -2 65 0 17 2 3 4 -33 4 -36 0 -50 -2 -32 -4z"/>
<path d="M3293 373 c119 -2 315 -2 435 0 119 1 21 2 -218 2 -239 0 -337 -1
-217 -2z"/>
</g>
</svg>
